:FULLY-SPECIFIED
:FORCE-ALL-JOINTS-BE-3DOF
:DEGREES
306
root 9.08424 15.4179 -23.8076 12.9155 59.5397 16.763
lfemur -16.3825 19.0362 -18.1279
ltibia 52.7657 -0 0
lfoot -17.3005 -26.4729 -0.0333245
ltoes 58.0564 -0 0
rfemur -53.4614 -19.6319 36.5847
rtibia 57.062 -0 0
rfoot 15.1534 14.7401 -0.237974
rtoes 5.95829 -0 0
lowerback 9.44337 -3.31785 -8.67681
upperback 5.04638 -4.94562 -4.04313
thorax 0.38332 -2.50847 1.06209
lowerneck -5.5107 -10.4389 -2.76518
upperneck -2.08404 -13.8375 10.619
head 1.31462 -6.78849 3.40365
lclavicle 9.86374e-14 2.18756e-14 -4.63049e-30
lhumerus -42.0456 -41.5359 98.873
lradius 59.3362 -0 0
lwrist 21.307 0 0
lhand 14.1377 11.7432 -0.00838149
lfingers 7.12502 -0 0
lthumb 39.0411 37.2664 -0.00252618
rclavicle 9.86374e-14 2.18756e-14 -4.63049e-30
rhumerus -43.4021 70.2786 -78.2016
rradius 80.4656 -0 0
rwrist 5.7095 0 0
rhand 4.1113 -4.72226 0.158302
rfingers 7.12502 -0 0
rthumb 29.4831 -32.0423 0.277068
307
root 9.04018 15.4397 -23.7906 12.453 58.0634 15.8717
lfemur -16.5569 19.3434 -18.0792
ltibia 52.3198 -0 0
lfoot -18.0084 -25.4752 -0.0245258
ltoes 57.8977 -0 0
rfemur -55.166 -20.7914 37.3973
rtibia 57.8946 -0 0
rfoot 14.8722 17.3585 -0.16792
rtoes -2.26405 0 0
lowerback 9.63297 -3.21329 -8.56751
upperback 5.05475 -4.8226 -4.05211
thorax 0.266053 -2.44221 0.997352
lowerneck -5.59747 -10.3225 -2.53205
upperneck -2.54572 -13.6535 10.7394
head 1.15866 -6.70801 3.42204
lclavicle 8.11292e-14 1.28671e-14 -4.597e-30
lhumerus -42.4245 -42.3175 99.257
lradius 59.0711 -0 0
lwrist 20.8798 0 0
lhand 14.155 11.5548 -0.00427758
lfingers 7.12502 -0 0
lthumb 39.0566 37.067 -0.00101919
rclavicle 8.11292e-14 1.28671e-14 -4.597e-30
rhumerus -33.4784 70.7191 -68.5243
rradius 80.4255 -0 0
rwrist 3.95324 0 0
rhand 7.53445 -3.84531 0.0770951
rfingers 7.12502 -0 0
rthumb 32.7554 -30.6249 0.161517
308
root 8.99819 15.4616 -23.7695 12.079 56.6572 15.0839
lfemur -16.6902 19.6288 -18.0171
ltibia 51.8491 -0 0
lfoot -18.6605 -24.499 -0.0116017
ltoes 57.7454 -0 0
rfemur -56.7007 -21.6953 37.9078
rtibia 58.6364 -0 0
rfoot 14.4336 19.3099 -0.0772513
rtoes -9.24209 0 0
lowerback 9.7912 -3.09315 -8.42768
upperback 5.0549 -4.67344 -4.06119
thorax 0.154893 -2.36273 0.911188
lowerneck -5.64952 -10.2437 -2.27328
upperneck -2.99042 -13.5218 10.8274
head 1.00145 -6.65566 3.42554
lclavicle 6.43694e-14 5.16724e-15 -2.54324e-30
lhumerus -42.8436 -43.1525 99.7147
lradius 58.8525 -0 0
lwrist 20.4804 0 0
lhand 14.1903 11.3692 -0.000815951
lfingers 7.12502 -0 0
lthumb 39.0892 36.8662 0.000141922
rclavicle 6.43694e-14 5.16724e-15 -2.54324e-30
rhumerus -24.1276 69.7021 -59.6557
rradius 80.1956 -0 0
rwrist 2.03078 0 0
rhand 10.0991 -3.42054 0.00425483
rfingers 7.12502 -0 0
rthumb 35.2068 -29.8011 0.0415579
309
root 8.95906 15.4833 -23.7423 11.7781 55.3449 14.3951
lfemur -16.7654 19.9095 -17.9263
ltibia 51.3578 0 0
lfoot -19.2093 -23.5771 0
ltoes 57.616 0 0
rfemur -57.9538 -22.2722 37.9888
rtibia 59.2337 0 0
rfoot 13.8786 20.3628 0
rtoes -14.2127 0 0
lowerback 9.90836 -2.94871 -8.25837
upperback 5.04675 -4.48549 -4.0701
thorax 0.0553108 -2.26391 0.802785
lowerneck -5.66427 -10.2142 -1.97222
upperneck -3.41346 -13.4593 10.8753
head 0.842986 -6.6399 3.40836
lclavicle 5.08889e-14 0 0
lhumerus -43.3004 -44.0231 100.237
lradius 58.7077 0 0
lwrist 20.1567 0 0
lhand 14.2114 11.1762 0
lfingers 7.12502 0 0
lthumb 39.1088 36.665 0
rclavicle 5.08889e-14 0 0
rhumerus -17.0391 67.2029 -53.3766
rradius 79.73 0 0
rwrist -0.0758576 0 0
rhand 11.4369 -3.63621 0
rfingers 7.12502 0 0
rthumb 36.4879 -749.831 0
310
root 8.92235 15.5057 -23.7103 11.5541 54.1171 13.796
lfemur -16.8033 20.1922 -17.824
ltibia 50.8396 -0 0
lfoot -19.6758 -22.667 0.00451189
ltoes 57.4785 -0 0
rfemur -58.9862 -22.5152 37.6339
rtibia 59.7182 -0 0
rfoot 13.0214 20.3604 0.0747223
rtoes -17.2828 0 0
lowerback 9.98408 -2.77335 -8.04118
upperback 5.02723 -4.24902 -4.09452
thorax -0.0388446 -2.14019 0.644598
lowerneck -5.63395 -10.2414 -1.61465
upperneck -3.8219 -13.4758 10.8917
head 0.680276 -6.66641 3.37015
lclavicle 3.87345e-14 -2.65577e-15 1.70721e-30
lhumerus -43.8366 -44.985 100.855
lradius 58.6389 -0 0
lwrist 19.8904 0 0
lhand 14.2454 10.9518 -0.00134329
lfingers 7.12502 -0 0
lthumb 39.1408 36.4312 -0.00131766
rclavicle 3.87345e-14 -2.65577e-15 1.70721e-30
rhumerus -12.5846 63.058 -50.1992
rradius 78.8435 -0 0
rwrist -2.54762 0 0
rhand 11.6743 -4.511 -0.0679744
rfingers 7.12502 -0 0
rthumb 36.7215 -30.7804 -0.0762032
